<?xml version="1.0" standalone="no"?>
<!DOCTYPE svg PUBLIC "-//W3C//DTD SVG 20010904//EN"
 "http://www.w3.org/TR/2001/REC-SVG-20010904/DTD/svg10.dtd">
<svg version="1.0" xmlns="http://www.w3.org/2000/svg"
 width="2555.000000pt" height="2555.000000pt" viewBox="0 0 2555.000000 2555.000000"
 preserveAspectRatio="xMidYMid meet">
<metadata>
Created by potrace 1.11, written by Peter Selinger 2001-2013
</metadata>
<g transform="translate(0.000000,2555.000000) scale(0.100000,-0.100000)"
fill="#000000" stroke="none">
<path d="M12129 25286 c-2 -2 -29 -6 -59 -9 -30 -3 -66 -8 -80 -12 -14 -3 -38
-8 -55 -10 -98 -17 -297 -102 -424 -180 l-58 -36 -54 15 c-215 63 -492 77
-699 36 -30 -6 -66 -14 -80 -16 -104 -21 -324 -118 -445 -197 -136 -88 -152
-104 -361 -357 -171 -207 -230 -244 -514 -321 -45 -12 -57 -15 -105 -27 -198
-49 -750 -237 -1105 -377 -447 -176 -877 -378 -1235 -580 -62 -35 -136 -77
-180 -102 -22 -12 -47 -26 -55 -29 -8 -4 -44 -24 -80 -44 -36 -20 -103 -57
-150 -82 -302 -161 -440 -244 -710 -432 -265 -183 -723 -525 -760 -566 -3 -3
-36 -30 -75 -60 -38 -30 -75 -59 -81 -65 -7 -5 -29 -24 -50 -42 -22 -17 -50
-41 -64 -53 -51 -44 -146 -127 -234 -204 -50 -43 -98 -86 -107 -95 -9 -9 -69
-65 -135 -126 -147 -136 -490 -480 -604 -605 -47 -51 -96 -105 -110 -119 -44
-45 -263 -296 -302 -347 -13 -16 -31 -38 -41 -49 -29 -32 -69 -80 -182 -225
-58 -74 -114 -144 -123 -155 -10 -11 -88 -117 -174 -235 -234 -323 -402 -579
-653 -995 -227 -375 -501 -921 -710 -1410 -21 -49 -48 -112 -60 -140 -13 -27
-59 -145 -104 -261 -170 -445 -288 -835 -407 -1356 -2 -10 -6 -26 -8 -35 -11
-44 -28 -119 -31 -133 -1 -8 -8 -33 -13 -55 -6 -22 -13 -51 -16 -65 -2 -14
-12 -61 -21 -105 -9 -44 -19 -89 -21 -100 -2 -11 -6 -29 -8 -40 -7 -32 -78
-368 -81 -385 -37 -187 -80 -339 -143 -515 -22 -60 -52 -144 -67 -185 -15 -41
-31 -84 -36 -95 -31 -71 -171 -527 -185 -605 -3 -14 -7 -32 -9 -40 -10 -32
-46 -238 -52 -300 -10 -85 -10 -328 0 -410 14 -126 51 -255 106 -371 l31 -66
-26 -59 c-36 -82 -77 -218 -99 -329 -26 -134 -26 -366 0 -500 40 -208 111
-346 290 -565 193 -236 290 -457 445 -1020 129 -467 272 -919 340 -1075 5 -11
20 -51 33 -90 23 -65 86 -224 107 -270 5 -11 23 -54 39 -95 27 -69 126 -294
198 -450 42 -90 196 -399 231 -463 16 -28 51 -92 77 -142 73 -136 241 -423
340 -580 80 -127 313 -477 342 -515 25 -31 69 -90 93 -125 121 -171 552 -710
620 -775 3 -3 43 -48 90 -100 47 -52 107 -120 135 -150 99 -107 532 -538 650
-645 66 -60 136 -124 155 -141 19 -18 91 -80 160 -139 69 -59 139 -119 155
-134 17 -15 77 -64 135 -111 58 -46 110 -89 116 -95 6 -5 29 -23 50 -40 21
-16 52 -42 69 -56 35 -30 492 -369 562 -417 26 -18 91 -63 143 -100 93 -67
473 -312 600 -388 36 -21 74 -44 85 -51 11 -7 27 -16 35 -20 8 -4 49 -27 90
-52 287 -171 828 -446 1170 -594 545 -236 1129 -441 1645 -577 39 -10 106 -28
150 -39 44 -12 89 -23 100 -25 11 -2 67 -16 125 -30 173 -41 423 -95 575 -122
49 -9 258 -45 290 -50 146 -23 234 -37 255 -39 14 -2 81 -10 150 -20 175 -23
179 -23 240 -30 30 -3 73 -7 95 -10 99 -11 154 -16 210 -21 33 -2 78 -7 100
-10 22 -3 192 -7 378 -9 187 -2 372 -9 415 -15 80 -13 222 -50 282 -75 19 -8
130 -54 245 -103 116 -49 249 -102 298 -118 66 -21 87 -32 87 -46 0 -17 19
-18 326 -18 l326 0 38 32 c35 30 207 138 290 181 19 11 46 26 59 34 35 23 80
18 152 -15 100 -45 160 -56 304 -56 138 1 201 10 330 51 151 48 288 126 560
319 323 229 415 272 923 434 666 212 1575 607 2200 956 26 14 76 42 112 62 36
19 109 62 163 94 55 32 100 58 102 58 1 0 42 24 91 53 417 251 751 476 1114
751 102 77 187 142 190 146 3 3 50 41 105 85 55 43 111 89 125 101 14 13 77
67 140 121 63 53 120 102 126 108 6 5 60 55 120 110 196 179 548 536 709 719
33 37 69 78 81 90 33 33 158 177 330 381 338 399 801 1032 1068 1461 27 43 68
108 91 144 23 36 57 91 76 123 19 32 39 66 44 75 22 38 115 201 146 257 240
437 447 878 615 1305 46 118 93 238 104 265 11 28 20 54 20 59 0 4 6 22 14 39
64 147 309 972 350 1179 2 13 23 106 46 208 23 102 50 232 61 290 10 58 21
117 24 133 6 34 11 62 19 107 3 19 8 49 11 65 42 244 95 660 121 954 4 46 20
82 110 239 289 506 382 763 389 1077 5 217 -27 368 -114 545 -80 163 -79 196
14 396 30 63 72 187 79 234 3 19 8 46 12 60 11 47 13 225 3 285 -26 158 -93
279 -274 490 -33 39 -78 93 -100 120 -22 27 -52 62 -66 79 -118 141 -274 376
-340 511 -39 81 -90 226 -114 325 -59 242 -310 960 -422 1210 -11 25 -44 101
-73 170 -28 69 -61 145 -73 170 -12 25 -22 47 -22 50 -7 27 -293 605 -360 725
-12 22 -31 56 -42 75 -11 19 -46 82 -78 140 -212 383 -565 914 -858 1295 -94
122 -264 334 -277 345 -3 3 -41 48 -84 100 -73 88 -132 155 -276 314 -198 219
-573 593 -798 796 -46 41 -100 91 -121 110 -21 19 -51 46 -67 60 -68 58 -160
136 -179 152 -11 9 -33 29 -50 43 -16 14 -97 81 -180 148 -82 66 -152 124
-155 127 -3 3 -43 34 -90 68 -47 35 -92 69 -100 75 -58 47 -198 149 -325 237
-82 58 -151 108 -153 112 -2 5 -8 8 -13 8 -4 0 -28 13 -51 29 -192 130 -549
351 -701 435 -37 20 -84 46 -105 58 -20 11 -62 34 -92 51 -30 16 -68 38 -85
47 -51 31 -422 214 -585 290 -149 69 -593 260 -606 260 -3 0 -20 6 -37 14
-199 88 -899 322 -1247 416 -124 33 -541 137 -655 163 -90 21 -556 113 -615
122 -25 4 -54 9 -65 11 -62 13 -379 63 -430 69 -33 4 -73 8 -90 10 -16 2 -61
7 -100 10 -38 4 -83 8 -100 10 -16 2 -59 7 -95 10 -64 5 -132 13 -180 21 -14
2 -54 9 -89 14 -36 6 -67 13 -70 15 -4 2 -25 6 -48 9 -136 21 -318 103 -583
263 -324 196 -466 255 -710 299 -14 2 -36 7 -50 10 -29 7 -325 16 -331 10z
m-3638 -15813 c13 -16 12 -17 -3 -4 -10 7 -18 15 -18 17 0 8 8 3 21 -13z
m-831 -797 c0 -2 -8 -10 -17 -17 -16 -13 -17 -12 -4 4 13 16 21 21 21 13z
m5498 -6397 c20 -12 39 -23 41 -25 2 -2 -54 -4 -124 -4 -117 0 -128 1 -114 16
23 23 86 42 125 37 19 -2 51 -13 72 -24z"/>
</g>
</svg>
